<svg version="1.1" xmlns="http://www.w3.org/2000/svg" xmlns:xlink="http://www.w3.org/1999/xlink" width="2092" height="1084"><defs/><g><g transform="translate(-206,-150) scale(1,1)"><rect fill="#C0C0C0" stroke="none" x="223" y="167" width="828.8" height="15" opacity="0.2"/></g><g transform="translate(-206,-150) scale(1,1)"><rect fill="#C0C0C0" stroke="none" x="223" y="181" width="2072" height="1050" opacity="0.2"/></g><g transform="translate(-206,-150) scale(1,1)"><rect fill="#ffffff" stroke="none" x="216" y="175" width="2072" height="1049"/></g><g transform="translate(-206,-150) scale(1,1)"><path fill="none" stroke="#000000" d="M 216 175 L 2288 175 L 2288 1224 L 216 1224 L 216 175 Z Z" stroke-miterlimit="10"/></g><g transform="translate(-206,-150) scale(1,1)"><rect fill="#ffffff" stroke="none" x="216" y="160" width="828.8" height="15"/></g><g transform="translate(-206,-150) scale(1,1)"><path fill="none" stroke="#000000" d="M 216 160 L 1044.8 160 L 1044.8 175 L 216 175 L 216 160 Z Z" stroke-miterlimit="10"/></g><g transform="translate(-206,-150) scale(1,1)"><rect fill="#ffffff" stroke="none" x="216" y="174" width="2072" height="1050"/></g><g transform="translate(-206,-150) scale(1,1)"><path fill="none" stroke="#000000" d="M 216 174 L 2288 174 L 2288 1224 L 216 1224 L 216 174 Z Z" stroke-miterlimit="10"/></g><g transform="translate(-206,-150) scale(1,1)"><g><path fill="none" stroke="none"/><text fill="#000000" stroke="none" font-family="Arial" font-size="13px" font-style="normal" font-weight="bold" text-decoration="none" x="1166" y="194.5">edu.hm.dako.chat.benchmark</text></g></g><g transform="translate(-206,-150) scale(1,1)"><rect fill="#C0C0C0" stroke="none" x="271" y="207" width="967" height="430" opacity="0.2"/></g><g transform="translate(-206,-150) scale(1,1)"><rect fill="#ffffff" stroke="none" x="264" y="200" width="967" height="430"/></g><g transform="translate(-206,-150) scale(1,1)"><path fill="none" stroke="#000000" d="M 264 200 L 1231 200 L 1231 630 L 264 630 L 264 200 Z Z" stroke-miterlimit="10"/></g><g transform="translate(-206,-150) scale(1,1)"><path fill="none" stroke="#000000" d="M 264 225 L 1231 225" stroke-miterlimit="10"/></g><g transform="translate(-206,-150) scale(1,1)"><path fill="none" stroke="#000000" d="M 264 338 L 1231 338" stroke-miterlimit="10"/></g><g transform="translate(-206,-150) scale(1,1)"><g><path fill="none" stroke="none"/><text fill="#000000" stroke="none" font-family="Arial" font-size="13px" font-style="normal" font-weight="bold" text-decoration="none" x="648" y="219.5">BenchmarkingClientImplAdvanced</text></g></g><g transform="translate(-206,-150) scale(1,1)"><g><path fill="none" stroke="none"/><text fill="#000000" stroke="none" font-family="Arial" font-size="13px" font-style="normal" font-weight="normal" text-decoration="none" x="269" y="242.5">-log: Log</text><path fill="none" stroke="#000000" d="M 269 242.5 L 319 242.5" stroke-miterlimit="10"/></g></g><g transform="translate(-206,-150) scale(1,1)"><g><path fill="none" stroke="none"/><text fill="#000000" stroke="none" font-family="Arial" font-size="13px" font-style="normal" font-weight="normal" text-decoration="none" x="269" y="257.5">#messageLength: int</text></g></g><g transform="translate(-206,-150) scale(1,1)"><g><path fill="none" stroke="none"/><text fill="#000000" stroke="none" font-family="Arial" font-size="13px" font-style="normal" font-weight="normal" text-decoration="none" x="269" y="272.5">#numberOfMessagesToSend: int</text></g></g><g transform="translate(-206,-150) scale(1,1)"><g><path fill="none" stroke="none"/><text fill="#000000" stroke="none" font-family="Arial" font-size="13px" font-style="normal" font-weight="normal" text-decoration="none" x="269" y="287.5">#clientThinkTime: int</text></g></g><g transform="translate(-206,-150) scale(1,1)"><g><path fill="none" stroke="none"/><text fill="#000000" stroke="none" font-family="Arial" font-size="13px" font-style="normal" font-weight="normal" text-decoration="none" x="269" y="302.5">#resultPath: String</text></g></g><g transform="translate(-206,-150) scale(1,1)"><g><path fill="none" stroke="none"/><text fill="#000000" stroke="none" font-family="Arial" font-size="13px" font-style="normal" font-weight="normal" text-decoration="none" x="269" y="317.5">-chatResponseReceived: AtomicBoolean</text></g></g><g transform="translate(-206,-150) scale(1,1)"><g><path fill="none" stroke="none"/><text fill="#000000" stroke="none" font-family="Arial" font-size="13px" font-style="normal" font-weight="normal" text-decoration="none" x="269" y="332.5">-chatPduRtt: long[*]</text></g></g><g transform="translate(-206,-150) scale(1,1)"><g><path fill="none" stroke="none"/><text fill="#000000" stroke="none" font-family="Arial" font-size="13px" font-style="normal" font-weight="normal" text-decoration="none" x="269" y="355.5">«constructor»+BenchmarkingClientImplAdvanced(uri: URI, messageLength: int, numberOfMessages: int, clientThinkTime: int, numberOfClient: int, resultPath: String)</text></g></g><g transform="translate(-206,-150) scale(1,1)"><g><path fill="none" stroke="none"/><text fill="#000000" stroke="none" font-family="Arial" font-size="13px" font-style="normal" font-weight="normal" text-decoration="none" x="269" y="370.5">+onOpen(): void</text></g></g><g transform="translate(-206,-150) scale(1,1)"><g><path fill="none" stroke="none"/><text fill="#000000" stroke="none" font-family="Arial" font-size="13px" font-style="normal" font-weight="normal" text-decoration="none" x="269" y="385.5">+onError(t: Throwable): void</text></g></g><g transform="translate(-206,-150) scale(1,1)"><g><path fill="none" stroke="none"/><text fill="#000000" stroke="none" font-family="Arial" font-size="13px" font-style="normal" font-weight="normal" text-decoration="none" x="269" y="400.5">+onClose(): void</text></g></g><g transform="translate(-206,-150) scale(1,1)"><g><path fill="none" stroke="none"/><text fill="#000000" stroke="none" font-family="Arial" font-size="13px" font-style="normal" font-weight="normal" text-decoration="none" x="269" y="415.5">+onMessage(receivedPdu: ChatPDU): void</text></g></g><g transform="translate(-206,-150) scale(1,1)"><g><path fill="none" stroke="none"/><text fill="#000000" stroke="none" font-family="Arial" font-size="13px" font-style="normal" font-weight="normal" text-decoration="none" x="269" y="430.5">+executeTest(): void</text></g></g><g transform="translate(-206,-150) scale(1,1)"><g><path fill="none" stroke="none"/><text fill="#000000" stroke="none" font-family="Arial" font-size="13px" font-style="normal" font-weight="normal" text-decoration="none" x="269" y="445.5">-printStatistic(): void</text></g></g><g transform="translate(-206,-150) scale(1,1)"><g><path fill="none" stroke="none"/><text fill="#000000" stroke="none" font-family="Arial" font-size="13px" font-style="normal" font-weight="normal" text-decoration="none" x="269" y="460.5">-waitUntilChatResponseReceived(): void</text></g></g><g transform="translate(-206,-150) scale(1,1)"><g><path fill="none" stroke="none"/><text fill="#000000" stroke="none" font-family="Arial" font-size="13px" font-style="normal" font-weight="normal" text-decoration="none" x="269" y="475.5">-sendMessageAndWaitForAck(i: int): void</text></g></g><g transform="translate(-206,-150) scale(1,1)"><g><path fill="none" stroke="none"/><text fill="#000000" stroke="none" font-family="Arial" font-size="13px" font-style="normal" font-weight="normal" text-decoration="none" x="269" y="490.5">#chatMessageResponseAction(receivedPdu: ChatPDU): void</text></g></g><g transform="translate(-206,-150) scale(1,1)"><g><path fill="none" stroke="none"/><text fill="#000000" stroke="none" font-family="Arial" font-size="13px" font-style="normal" font-weight="normal" text-decoration="none" x="269" y="505.5">#chatMessageEventAction(receivedPdu: ChatPDU): void</text></g></g><g transform="translate(-206,-150) scale(1,1)"><g><path fill="none" stroke="none"/><text fill="#000000" stroke="none" font-family="Arial" font-size="13px" font-style="normal" font-weight="normal" text-decoration="none" x="269" y="520.5">-confirmChatMessageEvent(receivedPdu: ChatPDU): void</text></g></g><g transform="translate(-206,-150) scale(1,1)"><g><path fill="none" stroke="none"/><text fill="#000000" stroke="none" font-family="Arial" font-size="13px" font-style="normal" font-weight="normal" text-decoration="none" x="269" y="535.5">-confirmLoginEvent(receivedPdu: ChatPDU): void</text></g></g><g transform="translate(-206,-150) scale(1,1)"><g><path fill="none" stroke="none"/><text fill="#000000" stroke="none" font-family="Arial" font-size="13px" font-style="normal" font-weight="normal" text-decoration="none" x="269" y="550.5">-confirmLogoutEvent(receivedPdu: ChatPDU): void</text></g></g><g transform="translate(-206,-150) scale(1,1)"><g><path fill="none" stroke="none"/><text fill="#000000" stroke="none" font-family="Arial" font-size="13px" font-style="normal" font-weight="normal" text-decoration="none" x="269" y="565.5">#loginResponseAction(receivedPdu: ChatPDU): void</text></g></g><g transform="translate(-206,-150) scale(1,1)"><g><path fill="none" stroke="none"/><text fill="#000000" stroke="none" font-family="Arial" font-size="13px" font-style="normal" font-weight="normal" text-decoration="none" x="269" y="580.5">#loginEventAction(receivedPdu: ChatPDU): void</text></g></g><g transform="translate(-206,-150) scale(1,1)"><g><path fill="none" stroke="none"/><text fill="#000000" stroke="none" font-family="Arial" font-size="13px" font-style="normal" font-weight="normal" text-decoration="none" x="269" y="595.5">#logoutEventAction(receivedPdu: ChatPDU): void</text></g></g><g transform="translate(-206,-150) scale(1,1)"><g><path fill="none" stroke="none"/><text fill="#000000" stroke="none" font-family="Arial" font-size="13px" font-style="normal" font-weight="normal" text-decoration="none" x="269" y="610.5">#logoutResponseAction(receivedPdu: ChatPDU): void</text></g></g><g transform="translate(-206,-150) scale(1,1)"><g><path fill="none" stroke="none"/><text fill="#000000" stroke="none" font-family="Arial" font-size="13px" font-style="normal" font-weight="normal" text-decoration="none" x="269" y="625.5">+handleIncomingPdu(receivedPdu: ChatPDU): void</text></g></g><g transform="translate(-206,-150) scale(1,1)"><rect fill="#C0C0C0" stroke="none" x="271" y="703" width="967" height="385" opacity="0.2"/></g><g transform="translate(-206,-150) scale(1,1)"><rect fill="#ffffff" stroke="none" x="264" y="696" width="967" height="385"/></g><g transform="translate(-206,-150) scale(1,1)"><path fill="none" stroke="#000000" d="M 264 696 L 1231 696 L 1231 1081 L 264 1081 L 264 696 Z Z" stroke-miterlimit="10"/></g><g transform="translate(-206,-150) scale(1,1)"><path fill="none" stroke="#000000" d="M 264 721 L 1231 721" stroke-miterlimit="10"/></g><g transform="translate(-206,-150) scale(1,1)"><path fill="none" stroke="#000000" d="M 264 834 L 1231 834" stroke-miterlimit="10"/></g><g transform="translate(-206,-150) scale(1,1)"><g><path fill="none" stroke="none"/><text fill="#000000" stroke="none" font-family="Arial" font-size="13px" font-style="normal" font-weight="bold" text-decoration="none" x="657" y="715.5">BenchmarkingClientImplSimple</text></g></g><g transform="translate(-206,-150) scale(1,1)"><g><path fill="none" stroke="none"/><text fill="#000000" stroke="none" font-family="Arial" font-size="13px" font-style="normal" font-weight="normal" text-decoration="none" x="269" y="738.5">-log: Log</text><path fill="none" stroke="#000000" d="M 269 738.5 L 319 738.5" stroke-miterlimit="10"/></g></g><g transform="translate(-206,-150) scale(1,1)"><g><path fill="none" stroke="none"/><text fill="#000000" stroke="none" font-family="Arial" font-size="13px" font-style="normal" font-weight="normal" text-decoration="none" x="269" y="753.5">#messageLength: int</text></g></g><g transform="translate(-206,-150) scale(1,1)"><g><path fill="none" stroke="none"/><text fill="#000000" stroke="none" font-family="Arial" font-size="13px" font-style="normal" font-weight="normal" text-decoration="none" x="269" y="768.5">#numberOfMessagesToSend: int</text></g></g><g transform="translate(-206,-150) scale(1,1)"><g><path fill="none" stroke="none"/><text fill="#000000" stroke="none" font-family="Arial" font-size="13px" font-style="normal" font-weight="normal" text-decoration="none" x="269" y="783.5">#clientThinkTime: int</text></g></g><g transform="translate(-206,-150) scale(1,1)"><g><path fill="none" stroke="none"/><text fill="#000000" stroke="none" font-family="Arial" font-size="13px" font-style="normal" font-weight="normal" text-decoration="none" x="269" y="798.5">#resultPath: String</text></g></g><g transform="translate(-206,-150) scale(1,1)"><g><path fill="none" stroke="none"/><text fill="#000000" stroke="none" font-family="Arial" font-size="13px" font-style="normal" font-weight="normal" text-decoration="none" x="269" y="813.5">-chatResponseReceived: AtomicBoolean</text></g></g><g transform="translate(-206,-150) scale(1,1)"><g><path fill="none" stroke="none"/><text fill="#000000" stroke="none" font-family="Arial" font-size="13px" font-style="normal" font-weight="normal" text-decoration="none" x="269" y="828.5">-chatPduRtt: long[*]</text></g></g><g transform="translate(-206,-150) scale(1,1)"><g><path fill="none" stroke="none"/><text fill="#000000" stroke="none" font-family="Arial" font-size="13px" font-style="normal" font-weight="normal" text-decoration="none" x="269" y="851.5">«constructor»+BenchmarkingClientImplSimple(uri: URI, messageLength: int, numberOfMessages: int, clientThinkTime: int, numberOfClient: int, resultPath: String)</text></g></g><g transform="translate(-206,-150) scale(1,1)"><g><path fill="none" stroke="none"/><text fill="#000000" stroke="none" font-family="Arial" font-size="13px" font-style="normal" font-weight="normal" text-decoration="none" x="269" y="866.5">+onOpen(session: Session): void</text></g></g><g transform="translate(-206,-150) scale(1,1)"><g><path fill="none" stroke="none"/><text fill="#000000" stroke="none" font-family="Arial" font-size="13px" font-style="normal" font-weight="normal" text-decoration="none" x="269" y="881.5">+onError(t: Throwable): void</text></g></g><g transform="translate(-206,-150) scale(1,1)"><g><path fill="none" stroke="none"/><text fill="#000000" stroke="none" font-family="Arial" font-size="13px" font-style="normal" font-weight="normal" text-decoration="none" x="269" y="896.5">+onClose(): void</text></g></g><g transform="translate(-206,-150) scale(1,1)"><g><path fill="none" stroke="none"/><text fill="#000000" stroke="none" font-family="Arial" font-size="13px" font-style="normal" font-weight="normal" text-decoration="none" x="269" y="911.5">+onMessage(receivedPdu: ChatPDU): void</text></g></g><g transform="translate(-206,-150) scale(1,1)"><g><path fill="none" stroke="none"/><text fill="#000000" stroke="none" font-family="Arial" font-size="13px" font-style="normal" font-weight="normal" text-decoration="none" x="269" y="926.5">+executeTest(): void</text></g></g><g transform="translate(-206,-150) scale(1,1)"><g><path fill="none" stroke="none"/><text fill="#000000" stroke="none" font-family="Arial" font-size="13px" font-style="normal" font-weight="normal" text-decoration="none" x="269" y="941.5">-printStatistic(): void</text></g></g><g transform="translate(-206,-150) scale(1,1)"><g><path fill="none" stroke="none"/><text fill="#000000" stroke="none" font-family="Arial" font-size="13px" font-style="normal" font-weight="normal" text-decoration="none" x="269" y="956.5">-waitUntilChatResponseReceived(): void</text></g></g><g transform="translate(-206,-150) scale(1,1)"><g><path fill="none" stroke="none"/><text fill="#000000" stroke="none" font-family="Arial" font-size="13px" font-style="normal" font-weight="normal" text-decoration="none" x="269" y="971.5">-sendMessageAndWaitForAck(i: int): void</text></g></g><g transform="translate(-206,-150) scale(1,1)"><g><path fill="none" stroke="none"/><text fill="#000000" stroke="none" font-family="Arial" font-size="13px" font-style="normal" font-weight="normal" text-decoration="none" x="269" y="986.5">#chatMessageResponseAction(receivedPdu: ChatPDU): void</text></g></g><g transform="translate(-206,-150) scale(1,1)"><g><path fill="none" stroke="none"/><text fill="#000000" stroke="none" font-family="Arial" font-size="13px" font-style="normal" font-weight="normal" text-decoration="none" x="269" y="1001.5">#chatMessageEventAction(receivedPdu: ChatPDU): void</text></g></g><g transform="translate(-206,-150) scale(1,1)"><g><path fill="none" stroke="none"/><text fill="#000000" stroke="none" font-family="Arial" font-size="13px" font-style="normal" font-weight="normal" text-decoration="none" x="269" y="1016.5">#loginResponseAction(receivedPdu: ChatPDU): void</text></g></g><g transform="translate(-206,-150) scale(1,1)"><g><path fill="none" stroke="none"/><text fill="#000000" stroke="none" font-family="Arial" font-size="13px" font-style="normal" font-weight="normal" text-decoration="none" x="269" y="1031.5">#loginEventAction(receivedPdu: ChatPDU): void</text></g></g><g transform="translate(-206,-150) scale(1,1)"><g><path fill="none" stroke="none"/><text fill="#000000" stroke="none" font-family="Arial" font-size="13px" font-style="normal" font-weight="normal" text-decoration="none" x="269" y="1046.5">#logoutEventAction(receivedPdu: ChatPDU): void</text></g></g><g transform="translate(-206,-150) scale(1,1)"><g><path fill="none" stroke="none"/><text fill="#000000" stroke="none" font-family="Arial" font-size="13px" font-style="normal" font-weight="normal" text-decoration="none" x="269" y="1061.5">#logoutResponseAction(receivedPdu: ChatPDU): void</text></g></g><g transform="translate(-206,-150) scale(1,1)"><g><path fill="none" stroke="none"/><text fill="#000000" stroke="none" font-family="Arial" font-size="13px" font-style="normal" font-weight="normal" text-decoration="none" x="269" y="1076.5">+handleIncomingPdu(receivedPdu: ChatPDU): void</text></g></g><g transform="translate(-206,-150) scale(1,1)"><rect fill="#C0C0C0" stroke="none" x="1871" y="223" width="360" height="385" opacity="0.2"/></g><g transform="translate(-206,-150) scale(1,1)"><rect fill="#ffffff" stroke="none" x="1864" y="216" width="360" height="385"/></g><g transform="translate(-206,-150) scale(1,1)"><path fill="none" stroke="#000000" d="M 1864 216 L 2224 216 L 2224 601 L 1864 601 L 1864 216 Z Z" stroke-miterlimit="10"/></g><g transform="translate(-206,-150) scale(1,1)"><path fill="none" stroke="#000000" d="M 1864 241 L 2224 241" stroke-miterlimit="10"/></g><g transform="translate(-206,-150) scale(1,1)"><path fill="none" stroke="#000000" d="M 1864 354 L 2224 354" stroke-miterlimit="10"/></g><g transform="translate(-206,-150) scale(1,1)"><g><path fill="none" stroke="none"/><text fill="#000000" stroke="none" font-family="Arial" font-size="13px" font-style="normal" font-weight="bold" text-decoration="none" x="2025.5" y="235.5">Result</text></g></g><g transform="translate(-206,-150) scale(1,1)"><g><path fill="none" stroke="none"/><text fill="#000000" stroke="none" font-family="Arial" font-size="13px" font-style="normal" font-weight="normal" text-decoration="none" x="1869" y="258.5">-userName: String</text></g></g><g transform="translate(-206,-150) scale(1,1)"><g><path fill="none" stroke="none"/><text fill="#000000" stroke="none" font-family="Arial" font-size="13px" font-style="normal" font-weight="normal" text-decoration="none" x="1869" y="273.5">-implementation: String</text></g></g><g transform="translate(-206,-150) scale(1,1)"><g><path fill="none" stroke="none"/><text fill="#000000" stroke="none" font-family="Arial" font-size="13px" font-style="normal" font-weight="normal" text-decoration="none" x="1869" y="288.5">-totalEvents: int</text></g></g><g transform="translate(-206,-150) scale(1,1)"><g><path fill="none" stroke="none"/><text fill="#000000" stroke="none" font-family="Arial" font-size="13px" font-style="normal" font-weight="normal" text-decoration="none" x="1869" y="303.5">-sendMessages: int</text></g></g><g transform="translate(-206,-150) scale(1,1)"><g><path fill="none" stroke="none"/><text fill="#000000" stroke="none" font-family="Arial" font-size="13px" font-style="normal" font-weight="normal" text-decoration="none" x="1869" y="318.5">-loginEvents: int</text></g></g><g transform="translate(-206,-150) scale(1,1)"><g><path fill="none" stroke="none"/><text fill="#000000" stroke="none" font-family="Arial" font-size="13px" font-style="normal" font-weight="normal" text-decoration="none" x="1869" y="333.5">-logoutEvents: int</text></g></g><g transform="translate(-206,-150) scale(1,1)"><g><path fill="none" stroke="none"/><text fill="#000000" stroke="none" font-family="Arial" font-size="13px" font-style="normal" font-weight="normal" text-decoration="none" x="1869" y="348.5">-chatPduRtt: long[*]</text></g></g><g transform="translate(-206,-150) scale(1,1)"><g><path fill="none" stroke="none"/><text fill="#000000" stroke="none" font-family="Arial" font-size="13px" font-style="normal" font-weight="normal" text-decoration="none" x="1869" y="371.5">«constructor»+Result()</text></g></g><g transform="translate(-206,-150) scale(1,1)"><g><path fill="none" stroke="none"/><text fill="#000000" stroke="none" font-family="Arial" font-size="13px" font-style="normal" font-weight="normal" text-decoration="none" x="1869" y="386.5">+getImplementation(): String</text></g></g><g transform="translate(-206,-150) scale(1,1)"><g><path fill="none" stroke="none"/><text fill="#000000" stroke="none" font-family="Arial" font-size="13px" font-style="normal" font-weight="normal" text-decoration="none" x="1869" y="401.5">+setImplementation(implementation: String): void</text></g></g><g transform="translate(-206,-150) scale(1,1)"><g><path fill="none" stroke="none"/><text fill="#000000" stroke="none" font-family="Arial" font-size="13px" font-style="normal" font-weight="normal" text-decoration="none" x="1869" y="416.5">+getChatPduRtt(): long[*]</text></g></g><g transform="translate(-206,-150) scale(1,1)"><g><path fill="none" stroke="none"/><text fill="#000000" stroke="none" font-family="Arial" font-size="13px" font-style="normal" font-weight="normal" text-decoration="none" x="1869" y="431.5">+setChatPduRtt(chatPduRtt: long[*]): void</text></g></g><g transform="translate(-206,-150) scale(1,1)"><g><path fill="none" stroke="none"/><text fill="#000000" stroke="none" font-family="Arial" font-size="13px" font-style="normal" font-weight="normal" text-decoration="none" x="1869" y="446.5">+getUserName(): String</text></g></g><g transform="translate(-206,-150) scale(1,1)"><g><path fill="none" stroke="none"/><text fill="#000000" stroke="none" font-family="Arial" font-size="13px" font-style="normal" font-weight="normal" text-decoration="none" x="1869" y="461.5">+setUserName(userName: String): void</text></g></g><g transform="translate(-206,-150) scale(1,1)"><g><path fill="none" stroke="none"/><text fill="#000000" stroke="none" font-family="Arial" font-size="13px" font-style="normal" font-weight="normal" text-decoration="none" x="1869" y="476.5">+getTotalEvents(): int</text></g></g><g transform="translate(-206,-150) scale(1,1)"><g><path fill="none" stroke="none"/><text fill="#000000" stroke="none" font-family="Arial" font-size="13px" font-style="normal" font-weight="normal" text-decoration="none" x="1869" y="491.5">+setTotalEvents(totalEvents: int): void</text></g></g><g transform="translate(-206,-150) scale(1,1)"><g><path fill="none" stroke="none"/><text fill="#000000" stroke="none" font-family="Arial" font-size="13px" font-style="normal" font-weight="normal" text-decoration="none" x="1869" y="506.5">+getSendMessages(): int</text></g></g><g transform="translate(-206,-150) scale(1,1)"><g><path fill="none" stroke="none"/><text fill="#000000" stroke="none" font-family="Arial" font-size="13px" font-style="normal" font-weight="normal" text-decoration="none" x="1869" y="521.5">+setSendMessages(sendMessages: int): void</text></g></g><g transform="translate(-206,-150) scale(1,1)"><g><path fill="none" stroke="none"/><text fill="#000000" stroke="none" font-family="Arial" font-size="13px" font-style="normal" font-weight="normal" text-decoration="none" x="1869" y="536.5">+getLoginEvents(): int</text></g></g><g transform="translate(-206,-150) scale(1,1)"><g><path fill="none" stroke="none"/><text fill="#000000" stroke="none" font-family="Arial" font-size="13px" font-style="normal" font-weight="normal" text-decoration="none" x="1869" y="551.5">+setLoginEvents(loginEvents: int): void</text></g></g><g transform="translate(-206,-150) scale(1,1)"><g><path fill="none" stroke="none"/><text fill="#000000" stroke="none" font-family="Arial" font-size="13px" font-style="normal" font-weight="normal" text-decoration="none" x="1869" y="566.5">+getLogoutEvents(): int</text></g></g><g transform="translate(-206,-150) scale(1,1)"><g><path fill="none" stroke="none"/><text fill="#000000" stroke="none" font-family="Arial" font-size="13px" font-style="normal" font-weight="normal" text-decoration="none" x="1869" y="581.5">+setLogoutEvents(logoutEvents: int): void</text></g></g><g transform="translate(-206,-150) scale(1,1)"><path fill="none" stroke="#000000" d="M 1756 707 L 1852.5 707.6301369863014" stroke-miterlimit="10"/></g><g transform="translate(-206,-150) scale(1,1)"><rect fill="#C0C0C0" stroke="none" x="1399" y="471" width="363" height="445" opacity="0.2"/></g><g transform="translate(-206,-150) scale(1,1)"><rect fill="#ffffff" stroke="none" x="1392" y="464" width="363" height="445"/></g><g transform="translate(-206,-150) scale(1,1)"><path fill="none" stroke="#000000" d="M 1392 464 L 1755 464 L 1755 909 L 1392 909 L 1392 464 Z Z" stroke-miterlimit="10"/></g><g transform="translate(-206,-150) scale(1,1)"><path fill="none" stroke="#000000" d="M 1392 489 L 1755 489" stroke-miterlimit="10"/></g><g transform="translate(-206,-150) scale(1,1)"><path fill="none" stroke="#000000" d="M 1392 722 L 1755 722" stroke-miterlimit="10"/></g><g transform="translate(-206,-150) scale(1,1)"><g><path fill="none" stroke="none"/><text fill="#000000" stroke="none" font-family="Arial" font-size="13px" font-style="italic" font-weight="bold" text-decoration="none" x="1519" y="483.5">AbstractChatClient</text></g></g><g transform="translate(-206,-150) scale(1,1)"><g><path fill="none" stroke="none"/><text fill="#000000" stroke="none" font-family="Arial" font-size="13px" font-style="normal" font-weight="normal" text-decoration="none" x="1397" y="506.5">-log: Log</text><path fill="none" stroke="#000000" d="M 1397 506.5 L 1447 506.5" stroke-miterlimit="10"/></g></g><g transform="translate(-206,-150) scale(1,1)"><g><path fill="none" stroke="none"/><text fill="#000000" stroke="none" font-family="Arial" font-size="13px" font-style="normal" font-weight="normal" text-decoration="none" x="1397" y="521.5">#status: ClientConversationStatus</text></g></g><g transform="translate(-206,-150) scale(1,1)"><g><path fill="none" stroke="none"/><text fill="#000000" stroke="none" font-family="Arial" font-size="13px" font-style="normal" font-weight="normal" text-decoration="none" x="1397" y="536.5">#userName: String</text></g></g><g transform="translate(-206,-150) scale(1,1)"><g><path fill="none" stroke="none"/><text fill="#000000" stroke="none" font-family="Arial" font-size="13px" font-style="normal" font-weight="normal" text-decoration="none" x="1397" y="551.5">#session: Session</text></g></g><g transform="translate(-206,-150) scale(1,1)"><g><path fill="none" stroke="none"/><text fill="#000000" stroke="none" font-family="Arial" font-size="13px" font-style="normal" font-weight="normal" text-decoration="none" x="1397" y="566.5">#threadName: String</text></g></g><g transform="translate(-206,-150) scale(1,1)"><g><path fill="none" stroke="none"/><text fill="#000000" stroke="none" font-family="Arial" font-size="13px" font-style="normal" font-weight="normal" text-decoration="none" x="1397" y="581.5">#messageCounter: AtomicInteger</text></g></g><g transform="translate(-206,-150) scale(1,1)"><g><path fill="none" stroke="none"/><text fill="#000000" stroke="none" font-family="Arial" font-size="13px" font-style="normal" font-weight="normal" text-decoration="none" x="1397" y="596.5">#eventCounter: AtomicInteger</text></g></g><g transform="translate(-206,-150) scale(1,1)"><g><path fill="none" stroke="none"/><text fill="#000000" stroke="none" font-family="Arial" font-size="13px" font-style="normal" font-weight="normal" text-decoration="none" x="1397" y="611.5">#messageEvents: AtomicInteger</text></g></g><g transform="translate(-206,-150) scale(1,1)"><g><path fill="none" stroke="none"/><text fill="#000000" stroke="none" font-family="Arial" font-size="13px" font-style="normal" font-weight="normal" text-decoration="none" x="1397" y="626.5">#confirmCounter: AtomicInteger</text></g></g><g transform="translate(-206,-150) scale(1,1)"><g><path fill="none" stroke="none"/><text fill="#000000" stroke="none" font-family="Arial" font-size="13px" font-style="normal" font-weight="normal" text-decoration="none" x="1397" y="641.5">#loginEvents: AtomicInteger</text></g></g><g transform="translate(-206,-150) scale(1,1)"><g><path fill="none" stroke="none"/><text fill="#000000" stroke="none" font-family="Arial" font-size="13px" font-style="normal" font-weight="normal" text-decoration="none" x="1397" y="656.5">#logoutEvents: AtomicInteger</text></g></g><g transform="translate(-206,-150) scale(1,1)"><g><path fill="none" stroke="none"/><text fill="#000000" stroke="none" font-family="Arial" font-size="13px" font-style="normal" font-weight="normal" text-decoration="none" x="1397" y="671.5">#localPort: int</text></g></g><g transform="translate(-206,-150) scale(1,1)"><g><path fill="none" stroke="none"/><text fill="#000000" stroke="none" font-family="Arial" font-size="13px" font-style="normal" font-weight="normal" text-decoration="none" x="1397" y="686.5">#serverPort: int</text></g></g><g transform="translate(-206,-150) scale(1,1)"><g><path fill="none" stroke="none"/><text fill="#000000" stroke="none" font-family="Arial" font-size="13px" font-style="normal" font-weight="normal" text-decoration="none" x="1397" y="701.5">#remoteServerAddress: String</text></g></g><g transform="translate(-206,-150) scale(1,1)"><g><path fill="none" stroke="none"/><text fill="#000000" stroke="none" font-family="Arial" font-size="13px" font-style="normal" font-weight="normal" text-decoration="none" x="1397" y="716.5">#finished: boolean = false</text></g></g><g transform="translate(-206,-150) scale(1,1)"><g><path fill="none" stroke="none"/><text fill="#000000" stroke="none" font-family="Arial" font-size="13px" font-style="italic" font-weight="normal" text-decoration="none" x="1397" y="739.5">+executeTest(): void</text></g></g><g transform="translate(-206,-150) scale(1,1)"><g><path fill="none" stroke="none"/><text fill="#000000" stroke="none" font-family="Arial" font-size="13px" font-style="normal" font-weight="normal" text-decoration="none" x="1397" y="754.5">+login(name: String): void</text></g></g><g transform="translate(-206,-150) scale(1,1)"><g><path fill="none" stroke="none"/><text fill="#000000" stroke="none" font-family="Arial" font-size="13px" font-style="normal" font-weight="normal" text-decoration="none" x="1397" y="769.5">+logout(name: String): void</text></g></g><g transform="translate(-206,-150) scale(1,1)"><g><path fill="none" stroke="none"/><text fill="#000000" stroke="none" font-family="Arial" font-size="13px" font-style="normal" font-weight="normal" text-decoration="none" x="1397" y="784.5">+tell(name: String, text: String): void</text></g></g><g transform="translate(-206,-150) scale(1,1)"><g><path fill="none" stroke="none"/><text fill="#000000" stroke="none" font-family="Arial" font-size="13px" font-style="normal" font-weight="normal" text-decoration="none" x="1397" y="799.5">+isLoggedOut(): boolean</text></g></g><g transform="translate(-206,-150) scale(1,1)"><g><path fill="none" stroke="none"/><text fill="#000000" stroke="none" font-family="Arial" font-size="13px" font-style="normal" font-weight="normal" text-decoration="none" x="1397" y="814.5">#sendPduToServer(client: String, pdu: ChatPDU): void</text></g></g><g transform="translate(-206,-150) scale(1,1)"><g><path fill="none" stroke="none"/><text fill="#000000" stroke="none" font-family="Arial" font-size="13px" font-style="italic" font-weight="normal" text-decoration="none" x="1397" y="829.5">#chatMessageResponseAction(receivedPdu: ChatPDU): void</text></g></g><g transform="translate(-206,-150) scale(1,1)"><g><path fill="none" stroke="none"/><text fill="#000000" stroke="none" font-family="Arial" font-size="13px" font-style="italic" font-weight="normal" text-decoration="none" x="1397" y="844.5">#chatMessageEventAction(receivedPdu: ChatPDU): void</text></g></g><g transform="translate(-206,-150) scale(1,1)"><g><path fill="none" stroke="none"/><text fill="#000000" stroke="none" font-family="Arial" font-size="13px" font-style="italic" font-weight="normal" text-decoration="none" x="1397" y="859.5">#loginResponseAction(receivedPdu: ChatPDU): void</text></g></g><g transform="translate(-206,-150) scale(1,1)"><g><path fill="none" stroke="none"/><text fill="#000000" stroke="none" font-family="Arial" font-size="13px" font-style="italic" font-weight="normal" text-decoration="none" x="1397" y="874.5">#loginEventAction(receivedPdu: ChatPDU): void</text></g></g><g transform="translate(-206,-150) scale(1,1)"><g><path fill="none" stroke="none"/><text fill="#000000" stroke="none" font-family="Arial" font-size="13px" font-style="italic" font-weight="normal" text-decoration="none" x="1397" y="889.5">#logoutEventAction(receivedPdu: ChatPDU): void</text></g></g><g transform="translate(-206,-150) scale(1,1)"><g><path fill="none" stroke="none"/><text fill="#000000" stroke="none" font-family="Arial" font-size="13px" font-style="italic" font-weight="normal" text-decoration="none" x="1397" y="904.5">#logoutResponseAction(receivedPdu: ChatPDU): void</text></g></g><g transform="translate(-206,-150) scale(1,1)"><path fill="#C0C0C0" stroke="none" d="M 1859.5 714.5 C 1859.5 708.1487248 1864.6487248 703 1871 703 C 1877.3512752 703 1882.5 708.1487248 1882.5 714.5 C 1882.5 720.8512752 1877.3512752 726 1871 726 C 1864.6487248 726 1859.5 720.8512752 1859.5 714.5 Z" opacity="0.2"/></g><g transform="translate(-206,-150) scale(1,1)"><path fill="#ffffff" stroke="none" d="M 1852.5 707.5 C 1852.5 701.1487248 1857.6487248 696 1864 696 C 1870.3512752 696 1875.5 701.1487248 1875.5 707.5 C 1875.5 713.8512752 1870.3512752 719 1864 719 C 1857.6487248 719 1852.5 713.8512752 1852.5 707.5 Z"/></g><g transform="translate(-206,-150) scale(1,1)"><path fill="none" stroke="#000000" d="M 1852.5 707.5 C 1852.5 701.1487248 1857.6487248 696 1864 696 C 1870.3512752 696 1875.5 701.1487248 1875.5 707.5 C 1875.5 713.8512752 1870.3512752 719 1864 719 C 1857.6487248 719 1852.5 713.8512752 1852.5 707.5 Z" stroke-miterlimit="10"/></g><g transform="translate(-206,-150) scale(1,1)"><g><path fill="none" stroke="none"/><text fill="#000000" stroke="none" font-family="Arial" font-size="13px" font-style="normal" font-weight="bold" text-decoration="none" x="1802.5" y="738.5">ClientCommunication</text></g></g><g transform="translate(-206,-150) scale(1,1)"><path fill="none" stroke="#000000" d="M 1232 574 L 1391 626" stroke-miterlimit="10"/></g><g transform="translate(-206,-150) scale(1,1)"><path fill="#FFFFFF" stroke="none" d="M 1369.0645445144924 627.6839811885262 L 1391 626 L 1374.2985361599845 611.6800451955794"/></g><g transform="translate(-206,-150) scale(1,1)"><path fill="none" stroke="#000000" d="M 1369.0645445144924 627.6839811885262 L 1391 626 L 1374.2985361599845 611.6800451955794 L 1369.0645445144924 627.6839811885262" stroke-miterlimit="10"/></g><g transform="translate(-206,-150) scale(1,1)"><path fill="none" stroke="#000000" d="M 1232 769 L 1391 731" stroke-miterlimit="10"/></g><g transform="translate(-206,-150) scale(1,1)"><path fill="#FFFFFF" stroke="none" d="M 1373.1883658207419 743.9130046025036 L 1391 731 L 1369.274399567909 727.5361458077559"/></g><g transform="translate(-206,-150) scale(1,1)"><path fill="none" stroke="#000000" d="M 1373.1883658207419 743.9130046025036 L 1391 731 L 1369.274399567909 727.5361458077559 L 1373.1883658207419 743.9130046025036" stroke-miterlimit="10"/></g></g></svg>