<svg version="1.1" xmlns="http://www.w3.org/2000/svg" xmlns:xlink="http://www.w3.org/1999/xlink" width="1555" height="702"><defs/><g><g transform="translate(-70,-198) scale(1,1)"><rect fill="#C0C0C0" stroke="none" x="567" y="495" width="208" height="85" opacity="0.2"/></g><g transform="translate(-70,-198) scale(1,1)"><rect fill="#ffffff" stroke="none" x="560" y="488" width="208" height="85"/></g><g transform="translate(-70,-198) scale(1,1)"><path fill="none" stroke="#000000" d="M 560 488 L 768 488 L 768 573 L 560 573 L 560 488 Z Z" stroke-miterlimit="10"/></g><g transform="translate(-70,-198) scale(1,1)"><path fill="none" stroke="#000000" d="M 560 526 L 768 526" stroke-miterlimit="10"/></g><g transform="translate(-70,-198) scale(1,1)"><path fill="none" stroke="#000000" d="M 560 564 L 768 564" stroke-miterlimit="10"/></g><g transform="translate(-70,-198) scale(1,1)"><g><path fill="none" stroke="none"/><text fill="#000000" stroke="none" font-family="Arial" font-size="13px" font-style="normal" font-weight="normal" text-decoration="none" x="636" y="505.5">«service»</text></g></g><g transform="translate(-70,-198) scale(1,1)"><g><path fill="none" stroke="none"/><text fill="#000000" stroke="none" font-family="Arial" font-size="13px" font-style="italic" font-weight="bold" text-decoration="none" x="609.5" y="520.5">AbstractChatClient</text></g></g><g transform="translate(-70,-198) scale(1,1)"><g><path fill="none" stroke="none"/><text fill="#000000" stroke="none" font-family="Arial" font-size="13px" font-style="normal" font-weight="normal" text-decoration="none" x="565" y="543.5">+status: ClientConversationStatus</text></g></g><g transform="translate(-70,-198) scale(1,1)"><g><path fill="none" stroke="none"/><text fill="#000000" stroke="none" font-family="Arial" font-size="13px" font-style="normal" font-weight="normal" text-decoration="none" x="565" y="558.5">+userName: String</text></g></g><g transform="translate(-70,-198) scale(1,1)"><rect fill="#C0C0C0" stroke="none" x="967" y="439" width="312" height="100" opacity="0.2"/></g><g transform="translate(-70,-198) scale(1,1)"><rect fill="#ffffff" stroke="none" x="960" y="432" width="312" height="100"/></g><g transform="translate(-70,-198) scale(1,1)"><path fill="none" stroke="#000000" d="M 960 432 L 1272 432 L 1272 532 L 960 532 L 960 432 Z Z" stroke-miterlimit="10"/></g><g transform="translate(-70,-198) scale(1,1)"><path fill="none" stroke="#000000" d="M 960 470 L 1272 470" stroke-miterlimit="10"/></g><g transform="translate(-70,-198) scale(1,1)"><path fill="none" stroke="#000000" d="M 960 480 L 1272 480" stroke-miterlimit="10"/></g><g transform="translate(-70,-198) scale(1,1)"><g><path fill="none" stroke="none"/><text fill="#000000" stroke="none" font-family="Arial" font-size="13px" font-style="normal" font-weight="normal" text-decoration="none" x="1088" y="449.5">«service»</text></g></g><g transform="translate(-70,-198) scale(1,1)"><g><path fill="none" stroke="none"/><text fill="#000000" stroke="none" font-family="Arial" font-size="13px" font-style="normal" font-weight="bold" text-decoration="none" x="1057" y="464.5">AdvancedChatClient</text></g></g><g transform="translate(-70,-198) scale(1,1)"><g><path fill="none" stroke="none"/><text fill="#000000" stroke="none" font-family="Arial" font-size="13px" font-style="normal" font-weight="normal" text-decoration="none" x="965" y="497.5">+confirmChatMessageEvent(receivedPdu: ChatPdu)</text></g></g><g transform="translate(-70,-198) scale(1,1)"><g><path fill="none" stroke="none"/><text fill="#000000" stroke="none" font-family="Arial" font-size="13px" font-style="normal" font-weight="normal" text-decoration="none" x="965" y="512.5">+confirmLoginEvent(receivedPdu: ChatPdu)</text></g></g><g transform="translate(-70,-198) scale(1,1)"><g><path fill="none" stroke="none"/><text fill="#000000" stroke="none" font-family="Arial" font-size="13px" font-style="normal" font-weight="normal" text-decoration="none" x="965" y="527.5">+confirmLogoutEvent(receivedPdu: ChatPdu)</text></g></g><g transform="translate(-70,-198) scale(1,1)"><rect fill="#C0C0C0" stroke="none" x="967" y="559" width="312" height="57" opacity="0.2"/></g><g transform="translate(-70,-198) scale(1,1)"><rect fill="#ffffff" stroke="none" x="960" y="552" width="312" height="57"/></g><g transform="translate(-70,-198) scale(1,1)"><path fill="none" stroke="#000000" d="M 960 552 L 1272 552 L 1272 609 L 960 609 L 960 552 Z Z" stroke-miterlimit="10"/></g><g transform="translate(-70,-198) scale(1,1)"><path fill="none" stroke="#000000" d="M 960 590 L 1272 590" stroke-miterlimit="10"/></g><g transform="translate(-70,-198) scale(1,1)"><path fill="none" stroke="#000000" d="M 960 600 L 1272 600" stroke-miterlimit="10"/></g><g transform="translate(-70,-198) scale(1,1)"><g><path fill="none" stroke="none"/><text fill="#000000" stroke="none" font-family="Arial" font-size="13px" font-style="normal" font-weight="normal" text-decoration="none" x="1088" y="569.5">«service»</text></g></g><g transform="translate(-70,-198) scale(1,1)"><g><path fill="none" stroke="none"/><text fill="#000000" stroke="none" font-family="Arial" font-size="13px" font-style="normal" font-weight="bold" text-decoration="none" x="1066" y="584.5">SimpleChatClient</text></g></g><g transform="translate(-70,-198) scale(1,1)"><rect fill="#C0C0C0" stroke="none" x="1343" y="727" width="279" height="128" opacity="0.2"/></g><g transform="translate(-70,-198) scale(1,1)"><rect fill="#ffffff" stroke="none" x="1336" y="720" width="279" height="128"/></g><g transform="translate(-70,-198) scale(1,1)"><path fill="none" stroke="#000000" d="M 1336 720 L 1615 720 L 1615 848 L 1336 848 L 1336 720 Z Z" stroke-miterlimit="10"/></g><g transform="translate(-70,-198) scale(1,1)"><path fill="none" stroke="#000000" d="M 1336 758 L 1615 758" stroke-miterlimit="10"/></g><g transform="translate(-70,-198) scale(1,1)"><path fill="none" stroke="#000000" d="M 1336 781 L 1615 781" stroke-miterlimit="10"/></g><g transform="translate(-70,-198) scale(1,1)"><g><path fill="none" stroke="none"/><text fill="#000000" stroke="none" font-family="Arial" font-size="13px" font-style="normal" font-weight="normal" text-decoration="none" x="1447.5" y="737.5">«service»</text></g></g><g transform="translate(-70,-198) scale(1,1)"><g><path fill="none" stroke="none"/><text fill="#000000" stroke="none" font-family="Arial" font-size="13px" font-style="normal" font-weight="bold" text-decoration="none" x="1442" y="752.5">WebSocket</text></g></g><g transform="translate(-70,-198) scale(1,1)"><g><path fill="none" stroke="none"/><text fill="#000000" stroke="none" font-family="Arial" font-size="13px" font-style="normal" font-weight="normal" text-decoration="none" x="1341" y="775.5">-subject: Rx.Subject&lt;MessageEvent&gt;</text></g></g><g transform="translate(-70,-198) scale(1,1)"><g><path fill="none" stroke="none"/><text fill="#000000" stroke="none" font-family="Arial" font-size="13px" font-style="normal" font-weight="normal" text-decoration="none" x="1341" y="798.5">+connect(url: any)</text></g></g><g transform="translate(-70,-198) scale(1,1)"><g><path fill="none" stroke="none"/><text fill="#000000" stroke="none" font-family="Arial" font-size="13px" font-style="normal" font-weight="normal" text-decoration="none" x="1341" y="813.5">+close()</text></g></g><g transform="translate(-70,-198) scale(1,1)"><g><path fill="none" stroke="none"/><text fill="#000000" stroke="none" font-family="Arial" font-size="13px" font-style="normal" font-weight="normal" text-decoration="none" x="1341" y="828.5">+reconnect(url: any)</text></g></g><g transform="translate(-70,-198) scale(1,1)"><g><path fill="none" stroke="none"/><text fill="#000000" stroke="none" font-family="Arial" font-size="13px" font-style="normal" font-weight="normal" text-decoration="none" x="1341" y="843.5">+create(url: any): Rx.Subject&lt;MessageEvent&gt;</text></g></g><g transform="translate(-70,-198) scale(1,1)"><rect fill="#C0C0C0" stroke="none" x="1343" y="455" width="279" height="128" opacity="0.2"/></g><g transform="translate(-70,-198) scale(1,1)"><rect fill="#ffffff" stroke="none" x="1336" y="448" width="279" height="128"/></g><g transform="translate(-70,-198) scale(1,1)"><path fill="none" stroke="#000000" d="M 1336 448 L 1615 448 L 1615 576 L 1336 576 L 1336 448 Z Z" stroke-miterlimit="10"/></g><g transform="translate(-70,-198) scale(1,1)"><path fill="none" stroke="#000000" d="M 1336 486 L 1615 486" stroke-miterlimit="10"/></g><g transform="translate(-70,-198) scale(1,1)"><path fill="none" stroke="#000000" d="M 1336 539 L 1615 539" stroke-miterlimit="10"/></g><g transform="translate(-70,-198) scale(1,1)"><g><path fill="none" stroke="none"/><text fill="#000000" stroke="none" font-family="Arial" font-size="13px" font-style="normal" font-weight="normal" text-decoration="none" x="1447.5" y="465.5">«service»</text></g></g><g transform="translate(-70,-198) scale(1,1)"><g><path fill="none" stroke="none"/><text fill="#000000" stroke="none" font-family="Arial" font-size="13px" font-style="normal" font-weight="bold" text-decoration="none" x="1440" y="480.5">ChatService</text></g></g><g transform="translate(-70,-198) scale(1,1)"><g><path fill="none" stroke="none"/><text fill="#000000" stroke="none" font-family="Arial" font-size="13px" font-style="normal" font-weight="normal" text-decoration="none" x="1341" y="503.5">+messages: Subject&lt;ChatPdu&gt;</text></g></g><g transform="translate(-70,-198) scale(1,1)"><g><path fill="none" stroke="none"/><text fill="#000000" stroke="none" font-family="Arial" font-size="13px" font-style="normal" font-weight="normal" text-decoration="none" x="1341" y="518.5">-pdu: ChatPdu</text></g></g><g transform="translate(-70,-198) scale(1,1)"><g><path fill="none" stroke="none"/><text fill="#000000" stroke="none" font-family="Arial" font-size="13px" font-style="normal" font-weight="normal" text-decoration="none" x="1341" y="533.5">-wsService: WebSocket</text></g></g><g transform="translate(-70,-198) scale(1,1)"><g><path fill="none" stroke="none"/><text fill="#000000" stroke="none" font-family="Arial" font-size="13px" font-style="normal" font-weight="normal" text-decoration="none" x="1341" y="556.5">+close()</text></g></g><g transform="translate(-70,-198) scale(1,1)"><g><path fill="none" stroke="none"/><text fill="#000000" stroke="none" font-family="Arial" font-size="13px" font-style="normal" font-weight="normal" text-decoration="none" x="1341" y="571.5">+reconnect()</text></g></g><g transform="translate(-70,-198) scale(1,1)"><path fill="none" stroke="#000000" d="M 1269 551 L 1335 539" stroke-miterlimit="10"/></g><g transform="translate(-70,-198) scale(1,1)"><path fill="none" stroke="#000000" d="M 1325.7542714298502 544.9595724013654 L 1335 539 L 1324.2482285730591 536.6763366890146" stroke-miterlimit="10"/></g><g transform="translate(-70,-198) scale(1,1)"><path fill="none" stroke="#000000" d="M 1475 577 L 1475 719" stroke-miterlimit="10"/></g><g transform="translate(-70,-198) scale(1,1)"><path fill="none" stroke="#000000" d="M 1470.7904822439841 708.8373251423759 L 1475 719 L 1479.2095177560159 708.8373251423759" stroke-miterlimit="10"/></g><g transform="translate(-70,-198) scale(1,1)"><rect fill="#C0C0C0" stroke="none" x="97" y="215" width="462" height="192" opacity="0.2"/></g><g transform="translate(-70,-198) scale(1,1)"><rect fill="#ffffff" stroke="none" x="90" y="208" width="462" height="192"/></g><g transform="translate(-70,-198) scale(1,1)"><path fill="none" stroke="#000000" d="M 90 208 L 552 208 L 552 400 L 90 400 L 90 208 Z Z" stroke-miterlimit="10"/></g><g transform="translate(-70,-198) scale(1,1)"><rect fill="#ffffff" stroke="none" x="80" y="215" width="20" height="10"/></g><g transform="translate(-70,-198) scale(1,1)"><path fill="none" stroke="#000000" d="M 80 215 L 100 215 L 100 225 L 80 225 L 80 215 Z Z" stroke-miterlimit="10"/></g><g transform="translate(-70,-198) scale(1,1)"><rect fill="#ffffff" stroke="none" x="80" y="235" width="20" height="10"/></g><g transform="translate(-70,-198) scale(1,1)"><path fill="none" stroke="#000000" d="M 80 235 L 100 235 L 100 245 L 80 245 L 80 235 Z Z" stroke-miterlimit="10"/></g><g transform="translate(-70,-198) scale(1,1)"><g><path fill="none" stroke="none"/><text fill="#000000" stroke="none" font-family="Arial" font-size="13px" font-style="normal" font-weight="bold" text-decoration="none" x="312.5" y="227.5">Chat</text></g></g><g transform="translate(-70,-198) scale(1,1)"><rect fill="#C0C0C0" stroke="none" x="311" y="255" width="224" height="130" opacity="0.2"/></g><g transform="translate(-70,-198) scale(1,1)"><rect fill="#ffffff" stroke="none" x="304" y="248" width="224" height="130"/></g><g transform="translate(-70,-198) scale(1,1)"><path fill="none" stroke="#000000" d="M 304 248 L 528 248 L 528 378 L 304 378 L 304 248 Z Z" stroke-miterlimit="10"/></g><g transform="translate(-70,-198) scale(1,1)"><path fill="none" stroke="#000000" d="M 304 273 L 528 273" stroke-miterlimit="10"/></g><g transform="translate(-70,-198) scale(1,1)"><path fill="none" stroke="#000000" d="M 304 296 L 528 296" stroke-miterlimit="10"/></g><g transform="translate(-70,-198) scale(1,1)"><g><path fill="none" stroke="none"/><text fill="#000000" stroke="none" font-family="Arial" font-size="13px" font-style="normal" font-weight="bold" text-decoration="none" x="369.5" y="267.5">ChatComponent</text></g></g><g transform="translate(-70,-198) scale(1,1)"><g><path fill="none" stroke="none"/><text fill="#000000" stroke="none" font-family="Arial" font-size="13px" font-style="normal" font-weight="normal" text-decoration="none" x="309" y="290.5">-client: AbstractChatClient</text></g></g><g transform="translate(-70,-198) scale(1,1)"><g><path fill="none" stroke="none"/><text fill="#000000" stroke="none" font-family="Arial" font-size="13px" font-style="normal" font-weight="normal" text-decoration="none" x="309" y="313.5">+send()</text></g></g><g transform="translate(-70,-198) scale(1,1)"><g><path fill="none" stroke="none"/><text fill="#000000" stroke="none" font-family="Arial" font-size="13px" font-style="normal" font-weight="normal" text-decoration="none" x="309" y="328.5">+addMessageLine(pdu: ChatPdu)</text></g></g><g transform="translate(-70,-198) scale(1,1)"><g><path fill="none" stroke="none"/><text fill="#000000" stroke="none" font-family="Arial" font-size="13px" font-style="normal" font-weight="normal" text-decoration="none" x="309" y="343.5">+updateUserList(pdu: ChatPdu)</text></g></g><g transform="translate(-70,-198) scale(1,1)"><g><path fill="none" stroke="none"/><text fill="#000000" stroke="none" font-family="Arial" font-size="13px" font-style="normal" font-weight="normal" text-decoration="none" x="309" y="358.5">+logout()</text></g></g><g transform="translate(-70,-198) scale(1,1)"><path fill="#C0C0C0" stroke="none" d="M 162.9 263 L 204.34000000000003 263 L 222.10000000000002 280.76 L 222.10000000000002 337 L 162.9 337" opacity="0.2"/></g><g transform="translate(-70,-198) scale(1,1)"><path fill="#ffffff" stroke="none" d="M 155.89999999999998 256 L 197.34 256 L 215.10000000000002 273.76 L 215.10000000000002 330 L 155.89999999999998 330"/></g><g transform="translate(-70,-198) scale(1,1)"><path fill="none" stroke="#000000" d="M 155.89999999999998 256 L 197.34 256 L 215.10000000000002 273.76 L 215.10000000000002 330 L 155.89999999999998 330 L 155.89999999999998 256" stroke-miterlimit="10"/></g><g transform="translate(-70,-198) scale(1,1)"><path fill="none" stroke="#000000" d="M 197.34 256 L 197.34 273.76 L 215.10000000000002 273.76 L 197.34 256" stroke-miterlimit="10"/></g><g transform="translate(-70,-198) scale(1,1)"><g><path fill="none" stroke="none"/><text fill="#000000" stroke="none" font-family="Arial" font-size="13px" font-style="normal" font-weight="normal" text-decoration="none" x="158.5" y="347.5">«artifact»</text></g></g><g transform="translate(-70,-198) scale(1,1)"><g><path fill="none" stroke="none"/><text fill="#000000" stroke="none" font-family="Arial" font-size="13px" font-style="normal" font-weight="bold" text-decoration="none" x="138.5" y="362.5">ChatView-HTML</text></g></g><g transform="translate(-70,-198) scale(1,1)"><path fill="#C0C0C0" stroke="none" d="M 657 641 C 657 631.0588736 665.0588736 623 675 623 C 684.9411264 623 693 631.0588736 693 641 C 693 650.9411264 684.9411264 659 675 659 C 665.0588736 659 657 650.9411264 657 641 Z" opacity="0.2"/></g><g transform="translate(-70,-198) scale(1,1)"><path fill="#ffffff" stroke="none" d="M 650 634 C 650 624.0588736 658.0588736 616 668 616 C 677.9411264 616 686 624.0588736 686 634 C 686 643.9411264 677.9411264 652 668 652 C 658.0588736 652 650 643.9411264 650 634 Z"/></g><g transform="translate(-70,-198) scale(1,1)"><path fill="none" stroke="#000000" d="M 650 634 C 650 624.0588736 658.0588736 616 668 616 C 677.9411264 616 686 624.0588736 686 634 C 686 643.9411264 677.9411264 652 668 652 C 658.0588736 652 650 643.9411264 650 634 Z" stroke-miterlimit="10"/></g><g transform="translate(-70,-198) scale(1,1)"><path fill="none" stroke="#000000" d="M 504 677 L 832 677" stroke-miterlimit="10"/></g><g transform="translate(-70,-198) scale(1,1)"><path fill="none" stroke="#000000" d="M 504 880 L 832 880" stroke-miterlimit="10"/></g><g transform="translate(-70,-198) scale(1,1)"><g><path fill="none" stroke="none"/><text fill="#000000" stroke="none" font-family="Arial" font-size="13px" font-style="normal" font-weight="bold" text-decoration="none" x="612.5" y="671.5">ChatClientInterface</text></g></g><g transform="translate(-70,-198) scale(1,1)"><g><path fill="none" stroke="none"/><text fill="#000000" stroke="none" font-family="Arial" font-size="13px" font-style="normal" font-weight="normal" text-decoration="none" x="509" y="694.5">+tell(userName: String, message: String)</text></g></g><g transform="translate(-70,-198) scale(1,1)"><g><path fill="none" stroke="none"/><text fill="#000000" stroke="none" font-family="Arial" font-size="13px" font-style="normal" font-weight="normal" text-decoration="none" x="509" y="709.5">+send(pdu: ChatPdu)</text></g></g><g transform="translate(-70,-198) scale(1,1)"><g><path fill="none" stroke="none"/><text fill="#000000" stroke="none" font-family="Arial" font-size="13px" font-style="normal" font-weight="normal" text-decoration="none" x="509" y="724.5">+login(userName: String)</text></g></g><g transform="translate(-70,-198) scale(1,1)"><g><path fill="none" stroke="none"/><text fill="#000000" stroke="none" font-family="Arial" font-size="13px" font-style="normal" font-weight="normal" text-decoration="none" x="509" y="739.5">+reconnect()</text></g></g><g transform="translate(-70,-198) scale(1,1)"><g><path fill="none" stroke="none"/><text fill="#000000" stroke="none" font-family="Arial" font-size="13px" font-style="normal" font-weight="normal" text-decoration="none" x="509" y="754.5">+logout(userName: String)</text></g></g><g transform="translate(-70,-198) scale(1,1)"><g><path fill="none" stroke="none"/><text fill="#000000" stroke="none" font-family="Arial" font-size="13px" font-style="normal" font-weight="normal" text-decoration="none" x="509" y="769.5">+loginEventAction(receivedPdu: ChatPdu)</text></g></g><g transform="translate(-70,-198) scale(1,1)"><g><path fill="none" stroke="none"/><text fill="#000000" stroke="none" font-family="Arial" font-size="13px" font-style="normal" font-weight="normal" text-decoration="none" x="509" y="784.5">+loginResponseAction(receivedPdu: ChatPdu)</text></g></g><g transform="translate(-70,-198) scale(1,1)"><g><path fill="none" stroke="none"/><text fill="#000000" stroke="none" font-family="Arial" font-size="13px" font-style="normal" font-weight="normal" text-decoration="none" x="509" y="799.5">+logoutEventAction(receivedPdu: ChatPdu)</text></g></g><g transform="translate(-70,-198) scale(1,1)"><g><path fill="none" stroke="none"/><text fill="#000000" stroke="none" font-family="Arial" font-size="13px" font-style="normal" font-weight="normal" text-decoration="none" x="509" y="814.5">+loginResponseAction(receivedPdu: ChatPdu)</text></g></g><g transform="translate(-70,-198) scale(1,1)"><g><path fill="none" stroke="none"/><text fill="#000000" stroke="none" font-family="Arial" font-size="13px" font-style="normal" font-weight="normal" text-decoration="none" x="509" y="829.5">+chatMessageEventAction(receivedPdu: ChatPdu)</text></g></g><g transform="translate(-70,-198) scale(1,1)"><g><path fill="none" stroke="none"/><text fill="#000000" stroke="none" font-family="Arial" font-size="13px" font-style="normal" font-weight="normal" text-decoration="none" x="509" y="844.5">+chatMessageResponseAction(receivedPdu: ChatPdu)</text></g></g><g transform="translate(-70,-198) scale(1,1)"><g><path fill="none" stroke="none"/><text fill="#000000" stroke="none" font-family="Arial" font-size="13px" font-style="normal" font-weight="normal" text-decoration="none" x="509" y="859.5">+handleUserListEvent(receivedPdu: ChatPdu)</text></g></g><g transform="translate(-70,-198) scale(1,1)"><g><path fill="none" stroke="none"/><text fill="#000000" stroke="none" font-family="Arial" font-size="13px" font-style="normal" font-weight="normal" text-decoration="none" x="509" y="874.5">+handleIncomingPdu(receivedPdu: ChatPdu)</text></g></g><g transform="translate(-70,-198) scale(1,1)"><path fill="none" stroke="#000000" d="M 959 499 L 769 519" stroke-miterlimit="10"/></g><g transform="translate(-70,-198) scale(1,1)"><path fill="#FFFFFF" stroke="none" d="M 788.3323262059222 508.4994684197506 L 769 519 L 790.0950160427758 525.2450218698601"/></g><g transform="translate(-70,-198) scale(1,1)"><path fill="none" stroke="#000000" d="M 788.3323262059222 508.4994684197506 L 769 519 L 790.0950160427758 525.2450218698601 L 788.3323262059222 508.4994684197506" stroke-miterlimit="10"/></g><g transform="translate(-70,-198) scale(1,1)"><path fill="none" stroke="#000000" d="M 959 563 L 769 542" stroke-miterlimit="10"/></g><g transform="translate(-70,-198) scale(1,1)"><path fill="#FFFFFF" stroke="none" d="M 790.1272206458128 535.8648106970413 L 769 542 L 788.277434946264 552.6009670262935"/></g><g transform="translate(-70,-198) scale(1,1)"><path fill="none" stroke="#000000" d="M 790.1272206458128 535.8648106970413 L 769 542 L 788.277434946264 552.6009670262935 L 790.1272206458128 535.8648106970413" stroke-miterlimit="10"/></g><g transform="translate(-70,-198) scale(1,1)"><path fill="none" stroke="#000000" d="M 1273 495 L 1335 500" stroke-miterlimit="10"/></g><g transform="translate(-70,-198) scale(1,1)"><path fill="none" stroke="#000000" d="M 1324.5318333406426 503.37897718132547 L 1335 500 L 1325.2085906901875 494.9871860469673" stroke-miterlimit="10"/></g><g transform="translate(-70,-198) scale(1,1)"><path fill="none" stroke="#000000" d="M 665 574 L 666.1052631578947 616" stroke-miterlimit="10"/></g><g transform="translate(-70,-198) scale(1,1)"><path fill="none" stroke="#000000" d="M 244 312 L 303 313" stroke-miterlimit="10"/></g><g transform="translate(-70,-198) scale(1,1)"><path fill="none" stroke="#000000" d="M 491 379 L 615 487" stroke-miterlimit="10"/></g><g transform="translate(-70,-198) scale(1,1)"><path fill="none" stroke="#000000" d="M 604.5717837178264 483.49967070517494 L 615 487 L 610.1012441319518 477.1510309704384" stroke-miterlimit="10"/></g><g transform="translate(-70,-198) scale(1,1)"><g><path fill="none" stroke="none"/><text fill="#000000" stroke="none" font-family="Arial" font-size="13px" font-style="normal" font-weight="normal" text-decoration="none" x="553.5" y="428.5">-client</text></g></g><g transform="translate(-70,-198) scale(1,1)"><rect fill="#C0C0C0" stroke="none" x="641" y="215" width="454" height="192" opacity="0.2"/></g><g transform="translate(-70,-198) scale(1,1)"><rect fill="#ffffff" stroke="none" x="634" y="208" width="454" height="192"/></g><g transform="translate(-70,-198) scale(1,1)"><path fill="none" stroke="#000000" d="M 634 208 L 1088 208 L 1088 400 L 634 400 L 634 208 Z Z" stroke-miterlimit="10"/></g><g transform="translate(-70,-198) scale(1,1)"><rect fill="#ffffff" stroke="none" x="624" y="215" width="20" height="10"/></g><g transform="translate(-70,-198) scale(1,1)"><path fill="none" stroke="#000000" d="M 624 215 L 644 215 L 644 225 L 624 225 L 624 215 Z Z" stroke-miterlimit="10"/></g><g transform="translate(-70,-198) scale(1,1)"><rect fill="#ffffff" stroke="none" x="624" y="235" width="20" height="10"/></g><g transform="translate(-70,-198) scale(1,1)"><path fill="none" stroke="#000000" d="M 624 235 L 644 235 L 644 245 L 624 245 L 624 235 Z Z" stroke-miterlimit="10"/></g><g transform="translate(-70,-198) scale(1,1)"><g><path fill="none" stroke="none"/><text fill="#000000" stroke="none" font-family="Arial" font-size="13px" font-style="normal" font-weight="bold" text-decoration="none" x="850.5" y="227.5">Login</text></g></g><g transform="translate(-70,-198) scale(1,1)"><rect fill="#C0C0C0" stroke="none" x="847" y="263" width="224" height="100" opacity="0.2"/></g><g transform="translate(-70,-198) scale(1,1)"><rect fill="#ffffff" stroke="none" x="840" y="256" width="224" height="100"/></g><g transform="translate(-70,-198) scale(1,1)"><path fill="none" stroke="#000000" d="M 840 256 L 1064 256 L 1064 356 L 840 356 L 840 256 Z Z" stroke-miterlimit="10"/></g><g transform="translate(-70,-198) scale(1,1)"><path fill="none" stroke="#000000" d="M 840 281 L 1064 281" stroke-miterlimit="10"/></g><g transform="translate(-70,-198) scale(1,1)"><path fill="none" stroke="#000000" d="M 840 304 L 1064 304" stroke-miterlimit="10"/></g><g transform="translate(-70,-198) scale(1,1)"><g><path fill="none" stroke="none"/><text fill="#000000" stroke="none" font-family="Arial" font-size="13px" font-style="normal" font-weight="bold" text-decoration="none" x="903.5" y="275.5">LoginComponent</text></g></g><g transform="translate(-70,-198) scale(1,1)"><g><path fill="none" stroke="none"/><text fill="#000000" stroke="none" font-family="Arial" font-size="13px" font-style="normal" font-weight="normal" text-decoration="none" x="845" y="298.5">-client: AbstractChatClient</text></g></g><g transform="translate(-70,-198) scale(1,1)"><g><path fill="none" stroke="none"/><text fill="#000000" stroke="none" font-family="Arial" font-size="13px" font-style="normal" font-weight="normal" text-decoration="none" x="845" y="321.5">+checkLogin()</text></g></g><g transform="translate(-70,-198) scale(1,1)"><g><path fill="none" stroke="none"/><text fill="#000000" stroke="none" font-family="Arial" font-size="13px" font-style="normal" font-weight="normal" text-decoration="none" x="845" y="336.5">+login()</text></g></g><g transform="translate(-70,-198) scale(1,1)"><path fill="#C0C0C0" stroke="none" d="M 719.9 263 L 755.74 263 L 771.1 278.36 L 771.1 327 L 719.9 327" opacity="0.2"/></g><g transform="translate(-70,-198) scale(1,1)"><path fill="#ffffff" stroke="none" d="M 712.9 256 L 748.74 256 L 764.1 271.36 L 764.1 320 L 712.9 320"/></g><g transform="translate(-70,-198) scale(1,1)"><path fill="none" stroke="#000000" d="M 712.9 256 L 748.74 256 L 764.1 271.36 L 764.1 320 L 712.9 320 L 712.9 256" stroke-miterlimit="10"/></g><g transform="translate(-70,-198) scale(1,1)"><path fill="none" stroke="#000000" d="M 748.74 256 L 748.74 271.36 L 764.1 271.36 L 748.74 256" stroke-miterlimit="10"/></g><g transform="translate(-70,-198) scale(1,1)"><g><path fill="none" stroke="none"/><text fill="#000000" stroke="none" font-family="Arial" font-size="13px" font-style="normal" font-weight="normal" text-decoration="none" x="711.5" y="337.5">«artifact»</text></g></g><g transform="translate(-70,-198) scale(1,1)"><g><path fill="none" stroke="none"/><text fill="#000000" stroke="none" font-family="Arial" font-size="13px" font-style="normal" font-weight="bold" text-decoration="none" x="689.5" y="352.5">LoginView-HTML</text></g></g><g transform="translate(-70,-198) scale(1,1)"><path fill="none" stroke="#000000" d="M 839 307 L 797 307" stroke-miterlimit="10"/></g><g transform="translate(-70,-198) scale(1,1)"><path fill="none" stroke="#000000" d="M 886 357 L 719 487" stroke-miterlimit="10"/></g><g transform="translate(-70,-198) scale(1,1)"><path fill="none" stroke="#000000" d="M 724.4335728215545 477.4356763755682 L 719 487 L 729.6051142804905 484.0791180958937" stroke-miterlimit="10"/></g><g transform="translate(-70,-198) scale(1,1)"><g><path fill="none" stroke="none"/><text fill="#000000" stroke="none" font-family="Arial" font-size="13px" font-style="normal" font-weight="normal" text-decoration="none" x="737.5" y="427.5">-client</text></g></g></g></svg>